<?xml version="1.0" encoding="UTF-8"?>
<svg id="Layer_1" xmlns="http://www.w3.org/2000/svg" version="1.1" xmlns:xlink="http://www.w3.org/1999/xlink" viewBox="0 0 338.4 259.2">
  <!-- Generator: Adobe Illustrator 29.3.1, SVG Export Plug-In . SVG Version: 2.1.0 Build 151)  -->
  <defs>
    <style>
      .st0 {
        fill: #ccccb8;
        opacity: .2;
        stroke: #ccccb8;
      }

      .st0, .st1 {
        stroke-linejoin: round;
        stroke-width: 6px;
      }

      .st0, .st1, .st2, .st3, .st4, .st5, .st6 {
        stroke-linecap: round;
      }

      .st7, .st2, .st3, .st4, .st5, .st6 {
        fill: none;
      }

      .st1 {
        fill: url(#linear-gradient);
        stroke: #cfcfba;
      }

      .st2 {
        stroke: url(#linear-gradient5);
      }

      .st2, .st3, .st4, .st5, .st6 {
        stroke-miterlimit: 10;
        stroke-width: 24px;
      }

      .st3 {
        stroke: url(#linear-gradient1);
      }

      .st4 {
        stroke: url(#linear-gradient2);
      }

      .st5 {
        stroke: url(#linear-gradient4);
      }

      .st8 {
        clip-path: url(#clippath);
      }

      .st6 {
        stroke: url(#linear-gradient3);
      }
    </style>
    <clipPath id="clippath">
      <rect class="st7" width="252" height="138.6"/>
    </clipPath>
    <linearGradient id="linear-gradient" x1="-8151.3" y1="-8678.6" x2="-8039.5" y2="-8872.2" gradientTransform="translate(8192 -8703) scale(1 -1)" gradientUnits="userSpaceOnUse">
      <stop offset="0" stop-color="#fff"/>
      <stop offset=".5" stop-color="#d4d4bf"/>
      <stop offset="1" stop-color="#b3b3a0"/>
    </linearGradient>
    <linearGradient id="linear-gradient1" x1="-8065.3" y1="-8702.7" x2="-7979.8" y2="-8850.8" gradientTransform="translate(8192 -8587) scale(1 -1)" gradientUnits="userSpaceOnUse">
      <stop offset="0" stop-color="#d4d7dd"/>
      <stop offset=".5" stop-color="#d4d7dd"/>
      <stop offset="1" stop-color="#bec1c6"/>
    </linearGradient>
    <linearGradient id="linear-gradient2" x1="-8103.7" y1="-8675.5" x2="-8043.8" y2="-8779.2" xlink:href="#linear-gradient1"/>
    <linearGradient id="linear-gradient3" x1="-7924.5" y1="-8702.9" x2="-7896.3" y2="-8751.8" xlink:href="#linear-gradient1"/>
    <linearGradient id="linear-gradient4" x1="-7934.7" y1="-7979.9" x2="-7874.8" y2="-8083.7" gradientTransform="translate(-7686.4 8272.2) rotate(-180) scale(1 -1)" xlink:href="#linear-gradient1"/>
    <linearGradient id="linear-gradient5" x1="-7755.5" y1="-8007.3" x2="-7727.3" y2="-8056.3" gradientTransform="translate(-7686.4 8272.2) rotate(-180) scale(1 -1)" xlink:href="#linear-gradient1"/>
  </defs>
  <g class="st8">
    <circle class="st0" cx="111.5" cy="64.6" r="112.1"/>
    <path class="st1" d="M207.2,93.1c4.2,0,8.3-.2,12.4-.7-12.6,47.9-56.6,83.4-109.1,83.4S-2.3,125.9-2.3,64.5C-2,7.3,41.3-40.4,98.1-46.2c-2.5,9.1-3.7,18.5-3.8,27.9.5,61.9,51,111.7,112.9,111.3h0Z"/>
  </g>
  <path class="st3" d="M316.5,189.8H22.5"/>
  <path class="st4" d="M214,140.3H22.5"/>
  <path class="st6" d="M314.1,140.3h-65"/>
  <path class="st5" d="M122.6,240.4h191.5"/>
  <path class="st2" d="M22.5,240.4h65"/>
</svg>