<?xml version="1.0" encoding="UTF-8"?>
<svg id="Layer_1" xmlns="http://www.w3.org/2000/svg" version="1.1" xmlns:xlink="http://www.w3.org/1999/xlink" viewBox="0 0 288 384">
  <!-- Generator: Adobe Illustrator 29.3.1, SVG Export Plug-In . SVG Version: 2.1.0 Build 151)  -->
  <defs>
    <style>
      .st0 {
        fill: none;
        stroke: #2885c7;
        stroke-miterlimit: 10;
        stroke-width: 3px;
      }

      .st1 {
        fill: #fff;
      }

      .st2 {
        fill: url(#linear-gradient);
      }
    </style>
    <linearGradient id="linear-gradient" x1="-117.5" y1="419" x2="98.8" y2="44.5" gradientTransform="translate(130.4 387.8) scale(.8 -.8)" gradientUnits="userSpaceOnUse">
      <stop offset="0" stop-color="#3392d6"/>
      <stop offset=".5" stop-color="#3392d6"/>
      <stop offset="1" stop-color="#2477b2"/>
    </linearGradient>
  </defs>
  <path class="st2" d="M141.9,16C69.6,122.8,23.2,189.6,23.2,254.4s53.1,117.6,118.7,117.6,118.7-52.7,118.7-117.6S214.1,122.7,141.9,16Z"/>
  <path class="st0" d="M141.9,16C69.6,122.8,23.2,189.6,23.2,254.4s53.1,117.6,118.7,117.6,118.7-52.7,118.7-117.6S214.1,122.7,141.9,16Z"/>
  <path class="st1" d="M176.9,256.9c-7.5,0-11.3,3.5-11.3,10.4v9.8c0,6.9,3.8,10.4,11.3,10.4s11.3-3.5,11.4-10.4v-9.9c0-6.8-3.8-10.2-11.4-10.2ZM156.7,247.8c4.6-4.5,11.4-6.7,20.3-6.7s15.6,2.2,20.2,6.7c4.8,4.4,7.1,10.6,7.1,18.4v11.9c0,7.7-2.4,13.7-7.1,18.1-4.7,4.3-11.5,6.6-20.3,6.7-8.8,0-15.5-2.2-20.2-6.5-4.7-4.3-7-10.4-7.1-18.2v-11.9c0-7.9,2.4-14,7.1-18.4ZM107.2,193.8c-7.6,0-11.4,3.5-11.4,10.4v9.9c0,6.9,3.8,10.4,11.4,10.4s11.4-3.5,11.4-10.4v-10.1c0-6.8-3.8-10.2-11.4-10.2ZM192.5,182.6c.4,1.4,0,2.8-.9,3.9l-78.6,108.7c-1.1,1.7-2.5,3.1-4.2,4.1-2.2.7-4.5,1-6.8.9h-6.5c-1.9,0-3.1-.6-3.7-1.6-.4-1.5,0-3.1,1-4.1l78.6-108.7c.9-1.7,2.2-3,3.9-4,2.1-.6,4.3-.9,6.5-.7h7.3c1.8,0,3,.6,3.4,1.6ZM86.9,184.9c4.7-4.4,11.5-6.7,20.3-6.7s15.5,2.2,20.2,6.7c4.8,4.3,7.1,10.5,7.1,18.4v11.9c0,7.7-2.4,13.7-7.1,18.1-4.7,4.3-11.5,6.5-20.2,6.5s-15.7-2.2-20.3-6.5c-4.7-4.3-7-10.4-7.1-18.1v-11.9c0-7.9,2.4-14,7.1-18.4Z"/>
</svg>