<?xml version="1.0" encoding="UTF-8"?>
<svg id="Layer_1" xmlns="http://www.w3.org/2000/svg" version="1.1" xmlns:xlink="http://www.w3.org/1999/xlink" viewBox="0 0 511.2 396.4">
  <!-- Generator: Adobe Illustrator 29.4.0, SVG Export Plug-In . SVG Version: 2.1.0 Build 152)  -->
  <defs>
    <style>
      .st0 {
        stroke: #d4dce8;
        stroke-width: 4.5px;
      }

      .st0, .st1, .st2 {
        fill: none;
      }

      .st0, .st2, .st3, .st4, .st5, .st6 {
        stroke-miterlimit: 10;
      }

      .st7 {
        fill: url(#linear-gradient1);
      }

      .st8 {
        clip-path: url(#clippath-1);
      }

      .st2 {
        stroke: #fbbf24;
        stroke-linecap: round;
        stroke-width: 24px;
      }

      .st3 {
        fill: url(#linear-gradient4);
      }

      .st3, .st5, .st6 {
        stroke: #0a5ad4;
      }

      .st4 {
        fill: url(#linear-gradient);
        stroke: #f8af18;
        stroke-width: 6px;
      }

      .st5 {
        fill: url(#linear-gradient2);
      }

      .st9 {
        clip-path: url(#clippath-2);
      }

      .st10 {
        clip-path: url(#clippath);
      }

      .st6 {
        fill: url(#linear-gradient3);
      }
    </style>
    <clipPath id="clippath">
      <rect class="st1" width="511.2" height="439.2"/>
    </clipPath>
    <linearGradient id="linear-gradient" x1="-8631.8" y1="8022.4" x2="-8547.5" y2="8168.7" gradientTransform="translate(-11455.4 -201.6) rotate(-135)" gradientUnits="userSpaceOnUse">
      <stop offset="0" stop-color="#fbbf24"/>
      <stop offset=".5" stop-color="#fbbf24"/>
      <stop offset="1" stop-color="#f59e0b"/>
    </linearGradient>
    <clipPath id="clippath-1">
      <rect class="st1" width="511.2" height="439.2"/>
    </clipPath>
    <linearGradient id="linear-gradient1" x1=".9" y1="1442.8" x2="227.7" y2="1835.9" gradientTransform="translate(257.6 -1090.2) rotate(-180) scale(.8 -.8)" gradientUnits="userSpaceOnUse">
      <stop offset="0" stop-color="#f3f7fe"/>
      <stop offset=".5" stop-color="#f3f7fe"/>
      <stop offset="1" stop-color="#deeafb"/>
    </linearGradient>
    <clipPath id="clippath-2">
      <rect class="st1" width="511.2" height="439.2"/>
    </clipPath>
    <linearGradient id="linear-gradient2" x1="-7979.8" y1="6061.3" x2="-7950.8" y2="6137" gradientTransform="translate(6991.9 -7003.2) rotate(-9)" gradientUnits="userSpaceOnUse">
      <stop offset="0" stop-color="#2f7bed"/>
      <stop offset=".5" stop-color="#2a6ed4"/>
      <stop offset="1" stop-color="#2661bc"/>
    </linearGradient>
    <linearGradient id="linear-gradient3" x1="-7904.5" y1="6158" x2="-7875.3" y2="6233.8" gradientTransform="translate(6992 -7002.1) rotate(-9)" gradientUnits="userSpaceOnUse">
      <stop offset="0" stop-color="#2f7bed"/>
      <stop offset=".5" stop-color="#2a6ed4"/>
      <stop offset="1" stop-color="#2661bc"/>
    </linearGradient>
    <linearGradient id="linear-gradient4" x1="-7807.1" y1="6115.6" x2="-7777.9" y2="6191.3" gradientTransform="translate(6992.1 -7001) rotate(-9)" gradientUnits="userSpaceOnUse">
      <stop offset="0" stop-color="#2f7bed"/>
      <stop offset=".5" stop-color="#2a6ed4"/>
      <stop offset="1" stop-color="#2661bc"/>
    </linearGradient>
  </defs>
  <g class="st10">
    <g>
      <circle class="st4" cx="342.8" cy="147.7" r="84.4"/>
      <path class="st2" d="M195.1,147.7h34.9M455.5,147.7h34.9M342.8,34.9V0"/>
      <path class="st2" d="M238.2,252.1l24.7-24.7M422.3,67.9l24.7-24.7M447.1,252l-24.7-24.7M262.9,67.9l-24.7-24.7"/>
    </g>
  </g>
  <g class="st8">
    <g>
      <path class="st7" d="M21.5,144.9h3.2c-12.7-51.2,13.9-104.1,62.7-124.5C136.1,0,192.5,18,220.2,63c22.1-13.1,49.5-13.4,71.9-.7s36.2,36.4,36.3,62.1c0,3.9-.4,7.7-1,11.5,39.1,7.2,66.2,43.1,62.4,82.6-3.7,39.6-37,69.7-76.8,69.5l-5.1-.3v.3H21.5c-39.5,0-71.6-32.1-71.6-71.6S-18,144.8,21.5,144.8h0Z"/>
      <path class="st0" d="M21.5,144.9h3.2c-12.7-51.2,13.9-104.1,62.7-124.5C136.1,0,192.5,18,220.2,63c22.1-13.1,49.5-13.4,71.9-.7s36.2,36.4,36.3,62.1c0,3.9-.4,7.7-1,11.5,39.1,7.2,66.2,43.1,62.4,82.6-3.7,39.6-37,69.7-76.8,69.5l-5.1-.3v.3H21.5c-39.5,0-71.6-32.1-71.6-71.6S-18,144.8,21.5,144.8h0Z"/>
    </g>
  </g>
  <g class="st9">
    <g>
      <path class="st5" d="M91.6,299v-64.1c0-7.1-5.7-12.8-12.8-12.8s-12.8,5.7-12.8,12.8v64.1c0,7.1,5.7,12.8,12.8,12.8s12.8-5.7,12.8-12.8Z"/>
      <path class="st6" d="M181.3,383.9v-64.1c0-7.1-5.7-12.8-12.8-12.8s-12.8,5.7-12.8,12.8v64.1c0,7.1,5.7,12.8,12.8,12.8s12.8-5.7,12.8-12.8Z"/>
      <path class="st3" d="M271,327.8v-64.1c0-7.1-5.7-12.8-12.8-12.8s-12.8,5.7-12.8,12.8v64.1c0,7.1,5.7,12.8,12.8,12.8s12.8-5.7,12.8-12.8Z"/>
    </g>
  </g>
</svg>