<?xml version="1.0" encoding="UTF-8"?>
<svg id="Layer_1" xmlns="http://www.w3.org/2000/svg" version="1.1" xmlns:xlink="http://www.w3.org/1999/xlink" viewBox="0 0 460.8 415.2">
  <!-- Generator: Adobe Illustrator 29.4.0, SVG Export Plug-In . SVG Version: 2.1.0 Build 152)  -->
  <defs>
    <style>
      .st0 {
        stroke: #696c72;
      }

      .st0, .st1, .st2, .st3, .st4 {
        stroke-miterlimit: 10;
      }

      .st0, .st5, .st2 {
        fill: none;
      }

      .st0, .st2 {
        stroke-width: 4.5px;
      }

      .st6 {
        fill: url(#linear-gradient1);
      }

      .st1 {
        fill: url(#linear-gradient4);
      }

      .st1, .st3, .st4 {
        stroke: #d9d9d9;
      }

      .st2 {
        stroke: #8794aa;
      }

      .st7 {
        clip-path: url(#clippath-1);
      }

      .st3 {
        fill: url(#linear-gradient3);
      }

      .st8 {
        fill: url(#linear-gradient);
      }

      .st9 {
        clip-path: url(#clippath);
      }

      .st4 {
        fill: url(#linear-gradient2);
      }
    </style>
    <clipPath id="clippath">
      <rect class="st5" width="460.8" height="496.8"/>
    </clipPath>
    <linearGradient id="linear-gradient" x1="219.7" y1="-1136.6" x2="391.2" y2="-1433.9" gradientTransform="translate(35.6 -881) scale(.8 -.8)" gradientUnits="userSpaceOnUse">
      <stop offset="0" stop-color="#626366"/>
      <stop offset="1" stop-color="#5a5f66"/>
    </linearGradient>
    <linearGradient id="linear-gradient1" x1="-253.3" y1="-1181.3" x2="-26.5" y2="-1574.4" gradientTransform="translate(54.2 -881) rotate(-180) scale(.8)" gradientUnits="userSpaceOnUse">
      <stop offset="0" stop-color="#617180"/>
      <stop offset="1" stop-color="#d6e1ff"/>
    </linearGradient>
    <clipPath id="clippath-1">
      <rect class="st5" width="460.8" height="496.8"/>
    </clipPath>
    <linearGradient id="linear-gradient2" x1="-8131.5" y1="-7937.6" x2="-8095.9" y2="-7999.5" gradientTransform="translate(8190.9 -7715) scale(1 -1)" gradientUnits="userSpaceOnUse">
      <stop offset="0" stop-color="#fff"/>
      <stop offset="1" stop-color="#e6e6e6"/>
    </linearGradient>
    <linearGradient id="linear-gradient3" x1="-8038.3" y1="-8057.5" x2="-8002.7" y2="-8119.4" gradientTransform="translate(8190.9 -7715) scale(1 -1)" gradientUnits="userSpaceOnUse">
      <stop offset="0" stop-color="#fff"/>
      <stop offset="1" stop-color="#e6e6e6"/>
    </linearGradient>
    <linearGradient id="linear-gradient4" x1="-7945.1" y1="-7974.3" x2="-7909.5" y2="-8036.2" gradientTransform="translate(8190.9 -7715) scale(1 -1)" gradientUnits="userSpaceOnUse">
      <stop offset="0" stop-color="#fff"/>
      <stop offset="1" stop-color="#e6e6e6"/>
    </linearGradient>
  </defs>
  <g class="st9">
    <g>
      <path class="st8" d="M385.9,83.6h-2.4c9.6-38.7-10.5-78.7-47.4-94.2s-79.5-1.7-100.5,32.3c-16.7-9.9-37.5-10.1-54.4-.5s-27.4,27.5-27.4,47,.3,5.8.8,8.7c-29.6,5.5-50,32.6-47.2,62.5,2.8,29.9,28,52.7,58.1,52.6l3.9-.2v.2h216.6c29.9,0,54.2-24.2,54.2-54.2s-24.2-54.2-54.2-54.2h-.1Z"/>
      <path class="st0" d="M385.9,83.6h-2.4c9.6-38.7-10.5-78.7-47.4-94.2s-79.5-1.7-100.5,32.3c-16.7-9.9-37.5-10.1-54.4-.5s-27.4,27.5-27.4,47,.3,5.8.8,8.7c-29.6,5.5-50,32.6-47.2,62.5,2.8,29.9,28,52.7,58.1,52.6l3.9-.2v.2h216.6c29.9,0,54.2-24.2,54.2-54.2s-24.2-54.2-54.2-54.2h-.1Z"/>
      <path class="st6" d="M21.5,144.9h3.2c-12.7-51.2,13.9-104.1,62.7-124.5C136.1,0,192.5,18,220.2,63c22.1-13.1,49.5-13.4,71.9-.7s36.2,36.4,36.3,62.1c0,3.9-.4,7.7-1,11.5,39.1,7.2,66.2,43.1,62.4,82.6-3.7,39.6-37,69.7-76.8,69.5l-5.1-.3v.3H21.5c-39.5,0-71.6-32.1-71.6-71.6S-18,144.8,21.5,144.8h0Z"/>
      <path class="st2" d="M21.5,144.9h3.2c-12.7-51.2,13.9-104.1,62.7-124.5C136.1,0,192.5,18,220.2,63c22.1-13.1,49.5-13.4,71.9-.7s36.2,36.4,36.3,62.1c0,3.9-.4,7.7-1,11.5,39.1,7.2,66.2,43.1,62.4,82.6-3.7,39.6-37,69.7-76.8,69.5l-5.1-.3v.3H21.5c-39.5,0-71.6-32.1-71.6-71.6S-18,144.8,21.5,144.8h0Z"/>
    </g>
  </g>
  <g class="st7">
    <g>
      <path class="st4" d="M109.7,264.5c3.2,1.9,4.2,6,2.3,9.1-1.2,2-3.3,3.3-5.7,3.3s-2.3-.3-3.3-.8l-10-5.5c-2.7,2.5-5.9,4.3-9.3,5.3v11c0,3.8-3.1,6.8-6.8,6.8s-6.8-3.1-6.8-6.8v-11c-1.7-.5-3.4-1.1-5-2s-3-2.1-4.3-3.3l-9.7,5.5c-1,.6-2.2.9-3.3.8-2.4,0-4.6-1.3-5.8-3.3h0c-1.8-3.2-.7-7.3,2.6-9.1l9.7-5.3c-.9-3.6-.9-7.3,0-10.8l-9.7-5.5h0c-3.2-1.9-4.3-5.9-2.4-9.1,0,0,0-.2.2-.3,1.9-3.1,6-4.1,9.2-2.2l9.7,5.5c2.7-2.5,6-4.3,9.5-5.3v-11c0-3.7,3-6.7,6.7-6.7s6.7,3,6.7,6.7v10.8c1.7.5,3.4,1.2,5,2.2,1.6.9,3,2.1,4.3,3.3l9.7-5.5s.2-.1.3-.2c3.2-1.8,7.3-.6,9,2.7h0c1.8,3.2.7,7.3-2.6,9.1l-9.7,5.3c.9,3.6.9,7.3,0,10.8l9.7,5.5s-.2,0-.2,0ZM85.5,258.6h0c2.8-4.8,1.1-10.9-3.7-13.6-1.5-.9-3.2-1.3-5-1.3-3.6,0-7,1.9-8.8,5h0c-2.7,4.8-1,10.9,3.9,13.6,4.8,2.7,10.8,1,13.7-3.7h0Z"/>
      <path class="st3" d="M203,384.4c3.1,1.9,4.1,6,2.2,9.2-1.2,2.1-3.4,3.4-5.8,3.3-1.2,0-2.3-.3-3.3-.8l-9.7-5.5c-2.7,2.5-6,4.3-9.5,5.3v10.8c0,3.7-3,6.7-6.7,6.7s-6.7-3-6.7-6.7v-11c-1.7-.5-3.4-1.1-5-2s-3.1-2-4.5-3.3l-9.7,5.5c-1,.6-2.2.9-3.3.8-2.4,0-4.6-1.3-5.8-3.3h0c-1.8-3.2-.7-7.3,2.6-9.1l9.7-5.3c-.9-3.6-.9-7.3,0-10.8l-9.7-5.5h0c-3.2-1.9-4.3-5.9-2.4-9.1,0,0,.1-.2.2-.3,1.9-3.1,6-4.1,9.2-2.2l9.7,5.5c2.7-2.5,6-4.3,9.5-5.3v-11c0-3.7,3-6.7,6.7-6.7s6.7,3,6.7,6.7v10.8c1.7.5,3.4,1.2,5,2.2,1.6.9,3,2.1,4.3,3.3l9.7-5.5s.2-.1.3-.2c3.2-1.8,7.3-.6,9,2.7h0c1.8,3.2.7,7.3-2.6,9.1l-9.7,5.3c.9,3.6.9,7.3,0,10.8l9.7,5.5v.2h0ZM178.8,378.4h0c2.8-4.8,1.1-10.9-3.7-13.6-1.5-.9-3.2-1.3-5-1.3-3.6,0-7,1.9-8.8,5h0c-2.7,4.8-1,10.9,3.9,13.6,4.8,2.7,10.8,1,13.7-3.7h0Z"/>
      <path class="st1" d="M296.2,301c3.1,1.9,4.1,6,2.2,9.2-1.2,2.1-3.4,3.4-5.8,3.3-1.2,0-2.3-.3-3.3-.8l-9.7-5.5c-2.7,2.5-6,4.3-9.5,5.3v11c0,3.7-3,6.7-6.7,6.7s-6.7-3-6.7-6.7v-11c-1.7-.5-3.4-1.1-5-2s-3.1-2-4.5-3.3l-9.7,5.5c-1,.6-2.2.9-3.3.8-2.4,0-4.6-1.3-5.8-3.3h0c-1.8-3.2-.7-7.3,2.6-9.1l9.7-5.3c-.9-3.6-.9-7.3,0-10.8l-9.7-5.5h0c-3.2-1.9-4.3-5.9-2.4-9.1,0,0,.1-.2.2-.3,1.9-3.1,6-4.1,9.2-2.2l9.7,5.5c2.7-2.5,6-4.3,9.5-5.3v-11c0-3.7,3-6.7,6.7-6.7s6.7,3,6.7,6.7v10.8c1.7.5,3.4,1.2,5,2.2,1.6.9,3,2.1,4.3,3.3l9.7-5.5s.2-.1.3-.2c3.2-1.8,7.3-.6,9,2.7h0c1.8,3.2.7,7.3-2.6,9.1l-9.7,5.3c.9,3.6.9,7.3,0,10.8l9.7,5.5h-.1ZM272.1,295.1h0c2.8-4.8,1.1-10.9-3.7-13.6-1.5-.9-3.2-1.3-5-1.3-3.6,0-7,1.9-8.8,5h0c-2.7,4.8-1,10.9,3.9,13.6,4.8,2.7,10.8,1,13.7-3.7h-.1Z"/>
    </g>
  </g>
</svg>