<?xml version="1.0" encoding="UTF-8"?>
<svg id="Layer_1" xmlns="http://www.w3.org/2000/svg" version="1.1" xmlns:xlink="http://www.w3.org/1999/xlink" viewBox="0 0 266.4 288">
  <!-- Generator: Adobe Illustrator 29.3.1, SVG Export Plug-In . SVG Version: 2.1.0 Build 151)  -->
  <defs>
    <style>
      .st0 {
        fill: url(#linear-gradient2);
      }

      .st0, .st1, .st2 {
        stroke: #ef4444;
        stroke-miterlimit: 10;
        stroke-width: 2px;
      }

      .st1 {
        fill: url(#linear-gradient3);
      }

      .st3 {
        fill: none;
        stroke: url(#linear-gradient);
        stroke-linecap: round;
        stroke-linejoin: round;
        stroke-width: 24px;
      }

      .st2 {
        fill: url(#linear-gradient1);
      }
    </style>
    <linearGradient id="linear-gradient" x1="-30.1" y1="468.5" x2="85.9" y2="267.7" gradientTransform="translate(0 514) scale(1 -1)" gradientUnits="userSpaceOnUse">
      <stop offset="0" stop-color="#d4d7dd"/>
      <stop offset=".5" stop-color="#d4d7dd"/>
      <stop offset="1" stop-color="#bec1c6"/>
    </linearGradient>
    <linearGradient id="linear-gradient1" x1="59.3" y1="481.6" x2="106.6" y2="399.7" gradientTransform="translate(0 514) scale(1 -1)" gradientUnits="userSpaceOnUse">
      <stop offset="0" stop-color="#f87171"/>
      <stop offset=".5" stop-color="#f87171"/>
      <stop offset="1" stop-color="#dc2626"/>
    </linearGradient>
    <linearGradient id="linear-gradient2" x1="132.4" y1="474.9" x2="171.8" y2="406.6" gradientTransform="translate(0 514) scale(1 -1)" gradientUnits="userSpaceOnUse">
      <stop offset="0" stop-color="#f87171"/>
      <stop offset=".5" stop-color="#f87171"/>
      <stop offset="1" stop-color="#dc2626"/>
    </linearGradient>
    <linearGradient id="linear-gradient3" x1="205.5" y1="468.1" x2="237.1" y2="413.4" gradientTransform="translate(0 514) scale(1 -1)" gradientUnits="userSpaceOnUse">
      <stop offset="0" stop-color="#f87171"/>
      <stop offset=".5" stop-color="#f87171"/>
      <stop offset="1" stop-color="#dc2626"/>
    </linearGradient>
  </defs>
  <path class="st3" d="M27.9,265.9V25.9"/>
  <path class="st2" d="M71.3,26.9l28.8,4.3c3.1.5,5.4,3.2,5.4,6.3v73.7c0,3.1-2.3,5.8-5.4,6.3l-28.8,4.2c-3.5.5-6.7-1.9-7.2-5.4,0-.3,0-.6,0-1V33.3c0-3.5,2.9-6.4,6.4-6.4.3,0,.6,0,.9,0h0Z"/>
  <path class="st0" d="M140.5,36l28.8,4.2c3.1.5,5.4,3.2,5.4,6.3v55.6c0,3.2-2.4,5.9-5.5,6.3l-28.7,4.2c-3.5.5-6.7-1.9-7.2-5.4,0-.3,0-.6,0-.9V42.3c0-3.5,2.9-6.4,6.4-6.4.3,0,.6,0,.9,0h0Z"/>
  <path class="st1" d="M209.7,45.1l28.7,4.2c3.1.4,5.5,3.1,5.5,6.3v37.4c0,3.2-2.4,5.9-5.5,6.3l-28.7,4.2c-3.5.5-6.7-1.9-7.2-5.4,0-.3,0-.6,0-.9v-45.8c0-3.5,2.9-6.4,6.4-6.4.3,0,.6,0,.9,0Z"/>
</svg>