<?xml version="1.0" encoding="UTF-8"?>
<svg id="Layer_1" xmlns="http://www.w3.org/2000/svg" version="1.1" xmlns:xlink="http://www.w3.org/1999/xlink" viewBox="0 0 512 512">
  <!-- Generator: Adobe Illustrator 29.4.0, SVG Export Plug-In . SVG Version: 2.1.0 Build 152)  -->
  <defs>
    <style>
      .st0 {
        stroke: #2885c7;
        stroke-miterlimit: 10;
        stroke-width: 3px;
      }

      .st0, .st1 {
        fill: none;
      }

      .st2, .st3 {
        fill: #fff;
      }

      .st3 {
        opacity: .3;
      }

      .st4 {
        fill: url(#linear-gradient);
      }

      .st5 {
        clip-path: url(#clippath);
      }
    </style>
    <clipPath id="clippath">
      <rect class="st1" x="72" y="72" width="360" height="360"/>
    </clipPath>
    <linearGradient id="linear-gradient" x1="10.8" y1="222.6" x2="229.5" y2="-156.1" gradientTransform="translate(132 289.8) scale(.8 -.8)" gradientUnits="userSpaceOnUse">
      <stop offset="0" stop-color="#3392d6"/>
      <stop offset=".5" stop-color="#3392d6"/>
      <stop offset="1" stop-color="#2477b2"/>
    </linearGradient>
  </defs>
  <path class="st3" d="M252,53.3l-7.5,11-6.8,10.1c-70,103.4-116.2,171.6-116.2,238.7s58.6,129.4,130.5,129.4,130.5-58.1,130.5-129.4-46-135-115.7-237.9l-7.4-10.9-7.5-11h.1Z"/>
  <g class="st5">
    <g>
      <path class="st4" d="M252,72c-73.1,108-120,175.6-120,241.1s53.7,118.9,120,118.9,120-53.3,120-118.9-47-133.2-120-241.1Z"/>
      <path class="st0" d="M252,72c-73.1,108-120,175.6-120,241.1s53.7,118.9,120,118.9,120-53.3,120-118.9-47-133.2-120-241.1Z"/>
      <path class="st2" d="M287.4,315.6c-7.6,0-11.4,3.5-11.4,10.5v9.9c0,7,3.8,10.5,11.4,10.5s11.4-3.5,11.5-10.5v-10c0-6.9-3.8-10.3-11.5-10.3h0ZM267,306.4c4.7-4.6,11.5-6.8,20.5-6.8s15.8,2.2,20.4,6.8c4.9,4.4,7.2,10.7,7.2,18.6v12c0,7.8-2.4,13.9-7.2,18.3-4.8,4.3-11.6,6.7-20.5,6.8-8.9,0-15.7-2.2-20.4-6.6-4.8-4.3-7.1-10.5-7.2-18.4v-12c0-8,2.4-14.2,7.2-18.6h0ZM216.9,251.8c-7.7,0-11.5,3.5-11.5,10.5v10c0,7,3.8,10.5,11.5,10.5s11.5-3.5,11.5-10.5v-10.2c0-6.9-3.8-10.3-11.5-10.3h0ZM303.2,240.5c.4,1.4,0,2.8-.9,3.9l-79.5,109.9c-1.1,1.7-2.5,3.1-4.2,4.1-2.2.7-4.6,1-6.9.9h-6.6c-1.9,0-3.1-.6-3.7-1.6-.4-1.5,0-3.1,1-4.1l79.5-109.9c.9-1.7,2.2-3,3.9-4,2.1-.6,4.3-.9,6.6-.7h7.4c1.8,0,3,.6,3.4,1.6h0ZM196.4,242.8c4.8-4.4,11.6-6.8,20.5-6.8s15.7,2.2,20.4,6.8c4.9,4.3,7.2,10.6,7.2,18.6v12c0,7.8-2.4,13.9-7.2,18.3-4.8,4.3-11.6,6.6-20.4,6.6s-15.9-2.2-20.5-6.6c-4.8-4.3-7.1-10.5-7.2-18.3v-12c0-8,2.4-14.2,7.2-18.6h0Z"/>
    </g>
  </g>
</svg>