<?xml version="1.0" encoding="UTF-8"?>
<svg id="Layer_1" xmlns="http://www.w3.org/2000/svg" version="1.1" xmlns:xlink="http://www.w3.org/1999/xlink" viewBox="0 0 512 512">
  <!-- Generator: Adobe Illustrator 29.4.0, SVG Export Plug-In . SVG Version: 2.1.0 Build 152)  -->
  <defs>
    <style>
      .st0 {
        fill: none;
        stroke: url(#linear-gradient);
        stroke-linecap: round;
        stroke-miterlimit: 10;
        stroke-width: 24px;
      }

      .st1 {
        fill: #fff;
        opacity: .3;
      }
    </style>
    <linearGradient id="linear-gradient" x1="175.8" y1="215" x2="336.2" y2="493" gradientTransform="translate(0 -98)" gradientUnits="userSpaceOnUse">
      <stop offset="0" stop-color="#d4d7dd"/>
      <stop offset=".5" stop-color="#d4d7dd"/>
      <stop offset="1" stop-color="#bec1c6"/>
    </linearGradient>
  </defs>
  <path class="st1" d="M365,258.2v-2.2c0-60.1-48.9-109-109-109s-36.4,4.6-52.2,13.3c3.2-9,7-17.9,11.3-26.5l3.8-7.7c2.5-5,2.9-10.7,1.1-16-1.8-5.3-5.6-9.6-10.6-12.1s-10.7-2.9-16-1.1-9.6,5.6-12.1,10.6l-3.8,7.7c-20.8,41.9-31.3,88.7-30.3,135.4,0,1.8-.1,3.6-.1,5.3,0,60.1,48.9,109,109,109s36.4-4.7,52.4-13.4c-3.2,9-7,17.8-11.3,26.4l-3.8,7.7c-5.1,10.4-.8,23,9.5,28.1,2.9,1.4,6.1,2.2,9.3,2.2,8.1,0,15.3-4.5,18.8-11.7l3.8-7.6c21.3-42.8,31.7-90.7,30.3-138.4h0ZM323,258.4c-1.2,35.7-31.2,64.6-67,64.6s-60.5-23.8-66-55.5v-2.3c-.4-4.6-.6-9.2-.8-13.9,2.4-35,31.7-62.4,66.8-62.4s61.2,24.3,66.2,56.7v1c.3,3.8.5,7.8.7,11.6v.2Z"/>
  <path class="st0" d="M344,256c0,48.6-39.4,88-88,88s-88-39.4-88-88,39.4-88,88-88,88,39.4,88,88ZM200,116.9l-3.8,7.7c-21.9,44.1-31.3,93.3-27.2,142.4h0M312.1,395l3.8-7.7c21.9-44.1,31.4-93.3,27.3-142.3h0"/>
</svg>