<?xml version="1.0" encoding="UTF-8"?>
<svg id="Layer_1" xmlns="http://www.w3.org/2000/svg" version="1.1" xmlns:xlink="http://www.w3.org/1999/xlink" viewBox="0 0 512 512">
  <!-- Generator: Adobe Illustrator 29.4.0, SVG Export Plug-In . SVG Version: 2.1.0 Build 152)  -->
  <defs>
    <style>
      .st0 {
        stroke: #d4dce8;
        stroke-width: 4.5px;
      }

      .st0, .st1, .st2 {
        fill: none;
      }

      .st0, .st2, .st3 {
        stroke-miterlimit: 10;
      }

      .st4 {
        fill: url(#linear-gradient1);
      }

      .st2 {
        stroke: #fbbf24;
        stroke-linecap: round;
        stroke-width: 24px;
      }

      .st3 {
        fill: url(#linear-gradient);
        stroke: #f8af18;
        stroke-width: 6px;
      }

      .st5 {
        fill: #fff;
        opacity: .3;
      }

      .st6 {
        clip-path: url(#clippath);
      }
    </style>
    <clipPath id="clippath">
      <rect class="st1" x="72" y="72" width="360" height="360"/>
    </clipPath>
    <linearGradient id="linear-gradient" x1="-8579.8" y1="7992.5" x2="-8526.5" y2="8085" gradientTransform="translate(-11406.7 -109.5) rotate(-135)" gradientUnits="userSpaceOnUse">
      <stop offset="0" stop-color="#fbbf24"/>
      <stop offset=".5" stop-color="#fbbf24"/>
      <stop offset="1" stop-color="#f59e0b"/>
    </linearGradient>
    <linearGradient id="linear-gradient1" x1="-17.2" y1="1369.3" x2="126.3" y2="1618.1" gradientTransform="translate(257.6 -894) rotate(-180) scale(.8 -.8)" gradientUnits="userSpaceOnUse">
      <stop offset="0" stop-color="#f3f7fe"/>
      <stop offset=".5" stop-color="#f3f7fe"/>
      <stop offset="1" stop-color="#deeafb"/>
    </linearGradient>
  </defs>
  <path class="st5" d="M419,233.3h-22.1c-3.1,0-6.1.7-8.7,1.9-1.3-4.1-2.9-8-4.9-11.8,2.8-1,5.3-2.6,7.5-4.8l15.6-15.6c4-4,6.2-9.2,6.2-14.8s-2.2-10.9-6.2-14.8c-4-4-9.2-6.2-14.8-6.2s-10.9,2.2-14.8,6.2l-15.6,15.6c-2.2,2.2-3.8,4.8-4.8,7.6-3.7-2-7.5-3.6-11.6-4.8,1.2-2.7,2-5.7,2-8.8v-22.1c0-11.6-9.4-21-21-21s-21,9.4-21,21v22.1c0,3.1.7,6.1,2,8.8-1.2.4-2.4.8-3.6,1.2-1.3-.9-2.6-1.7-3.9-2.5-4.1-2.3-8.4-4.1-13-5.3l-11.8-11.8c-4-4-9.2-6.2-14.8-6.2s-10.9,2.2-14.8,6.2c-1,1-1.8,2-2.6,3.1-8-6.9-17.4-12.2-27.6-15.5-17.9-5.7-37.4-4.9-54.8,2.4-17.4,7.3-31.7,20.6-40.1,37.4-6.5,12.8-9.3,27.3-8.2,41.5-25.9,5.2-45.6,28.2-45.6,55.5s25.4,56.6,56.6,56.6h192.4v-.5c11.8-1.5,23-6.5,31.9-14.4,6.2-5.5,11.2-12.2,14.6-19.7l15.4,15.4c4,4,9.2,6.2,14.8,6.2s10.9-2.2,14.8-6.2c4-4,6.2-9.2,6.2-14.8s-2.2-10.9-6.2-14.8l-15.6-15.6c-2.2-2.2-4.8-3.8-7.5-4.8,2-3.7,3.6-7.6,4.8-11.7,2.7,1.2,5.6,1.9,8.8,1.9h22.1c11.6,0,21-9.4,21-21s-9.4-21-21-21h0Z"/>
  <g class="st6">
    <g>
      <g>
        <circle class="st3" cx="325.6" cy="254.3" r="53.4"/>
        <path class="st2" d="M232.2,254.3h22.1M396.9,254.3h22.1M325.6,183v-22.1"/>
        <path class="st2" d="M259.4,320.4l15.6-15.6M375.9,203.8l15.6-15.6M391.6,320.3l-15.6-15.6M275.1,203.8l-15.6-15.6"/>
      </g>
      <g>
        <path class="st4" d="M122.3,252.6h2c-8-32.4,8.8-65.9,39.7-78.8,30.8-12.9,66.5-1.5,84,27,14-8.3,31.3-8.5,45.5-.4,14.2,8,22.9,23,23,39.3,0,2.5-.3,4.9-.6,7.3,24.7,4.6,41.9,27.3,39.5,52.3-2.3,25.1-23.4,44.1-48.6,44l-3.2-.2v.2H122.3c-25,0-45.3-20.3-45.3-45.3s20.3-45.3,45.3-45.3h0Z"/>
        <path class="st0" d="M122.3,252.6h2c-8-32.4,8.8-65.9,39.7-78.8,30.8-12.9,66.5-1.5,84,27,14-8.3,31.3-8.5,45.5-.4,14.2,8,22.9,23,23,39.3,0,2.5-.3,4.9-.6,7.3,24.7,4.6,41.9,27.3,39.5,52.3-2.3,25.1-23.4,44.1-48.6,44l-3.2-.2v.2H122.3c-25,0-45.3-20.3-45.3-45.3s20.3-45.3,45.3-45.3h0Z"/>
      </g>
    </g>
  </g>
</svg>