<?xml version="1.0" encoding="UTF-8"?>
<svg id="Layer_1" xmlns="http://www.w3.org/2000/svg" version="1.1" xmlns:xlink="http://www.w3.org/1999/xlink" viewBox="0 0 512 512">
  <!-- Generator: Adobe Illustrator 29.4.0, SVG Export Plug-In . SVG Version: 2.1.0 Build 152)  -->
  <defs>
    <style>
      .st0 {
        fill: url(#linear-gradient2);
      }

      .st1 {
        stroke: #2885c7;
        stroke-miterlimit: 10;
        stroke-width: 3px;
      }

      .st1, .st2 {
        fill: none;
      }

      .st3 {
        fill: url(#linear-gradient1);
      }

      .st4 {
        fill: #fff;
        opacity: .3;
      }

      .st5 {
        fill: url(#linear-gradient);
      }

      .st6 {
        clip-path: url(#clippath);
      }
    </style>
    <clipPath id="clippath">
      <rect class="st2" x="72" y="72" width="360" height="360"/>
    </clipPath>
    <linearGradient id="linear-gradient" x1="158.3" y1="-40.5" x2="266.6" y2="-228.2" gradientTransform="translate(89.2 63.8) scale(.8 -.8)" gradientUnits="userSpaceOnUse">
      <stop offset="0" stop-color="#3392d6"/>
      <stop offset=".5" stop-color="#3392d6"/>
      <stop offset="1" stop-color="#2477b2"/>
    </linearGradient>
    <linearGradient id="linear-gradient1" x1="33.1" y1="-111.5" x2="173" y2="-353.6" gradientTransform="translate(89.2 63.8) scale(.8 -.8)" gradientUnits="userSpaceOnUse">
      <stop offset="0" stop-color="#3599e0"/>
      <stop offset=".5" stop-color="#3599e0"/>
      <stop offset="1" stop-color="#2885c7"/>
    </linearGradient>
    <linearGradient id="linear-gradient2" x1="181.4" y1="-178.7" x2="332.2" y2="-439.7" gradientTransform="translate(89.2 63.8) scale(.8 -.8)" gradientUnits="userSpaceOnUse">
      <stop offset="0" stop-color="#3daeff"/>
      <stop offset=".5" stop-color="#3daeff"/>
      <stop offset="1" stop-color="#2e99e6"/>
    </linearGradient>
  </defs>
  <path class="st4" d="M340.5,204.1c.3-2.7.5-5.5.5-8.2,0-34.9-23.3-69.2-58.5-121.2l-11.5-17-11.8,17.4c-19.2,28.4-35.2,52-45.5,73.3-4.6-6.8-9.3-13.8-14.2-21l-12.6-18.6-12.3,18.1c-45.1,66.7-75,110.7-75,154.7s39.1,86.5,87.2,86.5,22.2-2.1,32.4-6.2c3.4,18.9,12.7,36.3,26.9,49.9,17.5,16.8,40.5,26.1,64.9,26.1,51.4,0,93.2-41.5,93.2-92.5s-26.4-85.5-63.8-141.4h0Z"/>
  <g class="st6">
    <g>
      <g>
        <path class="st5" d="M271,76.5c-36.2,53.5-59.5,86.9-59.5,119.5s26.6,58.9,59.5,58.9,59.5-26.4,59.5-58.9-23.3-66-59.5-119.5h0Z"/>
        <path class="st1" d="M271,76.5c-36.2,53.5-59.5,86.9-59.5,119.5s26.6,58.9,59.5,58.9,59.5-26.4,59.5-58.9-23.3-66-59.5-119.5h0Z"/>
      </g>
      <g>
        <path class="st3" d="M186.9,127.6c-46.7,69-76.7,112.2-76.7,154.1s34.3,76,76.7,76,76.7-34.1,76.7-76-30.1-85.1-76.7-154.1h0Z"/>
        <path class="st1" d="M186.9,127.6c-46.7,69-76.7,112.2-76.7,154.1s34.3,76,76.7,76,76.7-34.1,76.7-76-30.1-85.1-76.7-154.1h0Z"/>
      </g>
      <g>
        <path class="st0" d="M311.1,179.3c-50.4,74.5-82.7,121-82.7,166.2s37,82,82.7,82,82.7-36.7,82.7-82-32.4-91.8-82.7-166.2h0Z"/>
        <path class="st1" d="M311.1,179.3c-50.4,74.5-82.7,121-82.7,166.2s37,82,82.7,82,82.7-36.7,82.7-82-32.4-91.8-82.7-166.2h0Z"/>
      </g>
    </g>
  </g>
</svg>