<?xml version="1.0" encoding="UTF-8"?>
<svg id="Layer_1" xmlns="http://www.w3.org/2000/svg" version="1.1" xmlns:xlink="http://www.w3.org/1999/xlink" viewBox="0 0 512 512">
  <!-- Generator: Adobe Illustrator 29.4.0, SVG Export Plug-In . SVG Version: 2.1.0 Build 152)  -->
  <defs>
    <style>
      .st0 {
        stroke: #d4dce8;
      }

      .st0, .st1, .st2 {
        fill: none;
      }

      .st0, .st3, .st4, .st2, .st5 {
        stroke-miterlimit: 10;
      }

      .st0, .st2 {
        stroke-width: 4.5px;
      }

      .st6 {
        fill: url(#linear-gradient1);
      }

      .st3 {
        fill: url(#linear-gradient4);
      }

      .st3, .st4, .st5 {
        stroke: #0a5ad4;
      }

      .st4 {
        fill: url(#linear-gradient2);
      }

      .st7 {
        fill: #fff;
        opacity: .3;
      }

      .st2 {
        stroke: #a1a7b0;
      }

      .st8 {
        fill: url(#linear-gradient);
      }

      .st9 {
        clip-path: url(#clippath);
      }

      .st5 {
        fill: url(#linear-gradient3);
      }
    </style>
    <clipPath id="clippath">
      <rect class="st1" x="72" y="72" width="360" height="360"/>
    </clipPath>
    <linearGradient id="linear-gradient" x1="262.3" y1="-866.5" x2="385" y2="-1079.3" gradientTransform="translate(54 -557) scale(.8 -.8)" gradientUnits="userSpaceOnUse">
      <stop offset="0" stop-color="#dce0e6"/>
      <stop offset=".5" stop-color="#d6dae0"/>
      <stop offset="1" stop-color="#b4becc"/>
    </linearGradient>
    <linearGradient id="linear-gradient1" x1="-95.7" y1="-898.7" x2="66.7" y2="-1180.1" gradientTransform="translate(219.8 -557) rotate(-180) scale(.8)" gradientUnits="userSpaceOnUse">
      <stop offset="0" stop-color="#f3f7fe"/>
      <stop offset=".5" stop-color="#f3f7fe"/>
      <stop offset="1" stop-color="#deeafb"/>
    </linearGradient>
    <linearGradient id="linear-gradient2" x1="-7933.1" y1="-5784.7" x2="-7912.3" y2="-5838.9" gradientTransform="translate(7084.7 -6672.4) rotate(-9) scale(1 -1)" gradientUnits="userSpaceOnUse">
      <stop offset="0" stop-color="#2f7bed"/>
      <stop offset=".5" stop-color="#2a6ed4"/>
      <stop offset="1" stop-color="#2661bc"/>
    </linearGradient>
    <linearGradient id="linear-gradient3" x1="-7879.1" y1="-5853.7" x2="-7858.2" y2="-5907.9" gradientTransform="translate(7084.8 -6671.3) rotate(-9) scale(1 -1)" gradientUnits="userSpaceOnUse">
      <stop offset="0" stop-color="#2f7bed"/>
      <stop offset=".5" stop-color="#2a6ed4"/>
      <stop offset="1" stop-color="#2661bc"/>
    </linearGradient>
    <linearGradient id="linear-gradient4" x1="-7809.3" y1="-5823" x2="-7788.4" y2="-5877.2" gradientTransform="translate(7084.9 -6670.2) rotate(-9) scale(1 -1)" gradientUnits="userSpaceOnUse">
      <stop offset="0" stop-color="#2f7bed"/>
      <stop offset=".5" stop-color="#2a6ed4"/>
      <stop offset="1" stop-color="#2661bc"/>
    </linearGradient>
  </defs>
  <path class="st7" d="M438.7,214.7c0-13.1-5.1-25.6-14.3-35-6.8-7-15.4-11.8-24.7-13.9.7-12.6-2-25.2-7.9-36.4-7.5-14-19.7-25.2-34.5-31.4-14.9-6.3-31.6-7.2-46.9-2.5-12.9,3.9-24.4,11.6-33.1,22-12.7-4.3-26.5-3.4-38.6,2.7-2.4-1-4.8-1.9-7.2-2.7-20-6.4-41.6-5.5-60.9,2.6-19.4,8.1-35.2,22.9-44.7,41.6-7.4,14.7-10.5,31.2-9,47.5-29.3,5.2-51.7,30.9-51.7,61.6s28,62.5,62.5,62.5h22.7c1.6,8.7,9.2,15.3,18.4,15.3s16.8-6.6,18.4-15.3h31.2c-2.5,3.2-4,7.2-4,11.5v45.9c0,10.3,8.4,18.7,18.7,18.7s18.7-8.4,18.7-18.7v-45.9c0-4.3-1.5-8.3-4-11.5h30.9v17.2c0,10.3,8.4,18.7,18.7,18.7s18.7-8.4,18.7-18.7v-17.2h28.1v-.4c31-3.4,55.6-27.8,58.6-59.5.3-3.6.4-7.2.1-10.8,21-6.1,36-25.3,36-48.1l-.2.2Z"/>
  <g class="st9">
    <g>
      <g>
        <path class="st8" d="M388.6,175.9h-1.7c6.9-27.7-7.5-56.3-33.9-67.4s-56.9-1.2-71.9,23.1c-12-7.1-26.8-7.2-38.9-.4s-19.6,19.7-19.6,33.6.2,4.2.6,6.2c-21.2,3.9-35.8,23.3-33.8,44.7s20,37.7,41.6,37.7h2.8c0-.1,0,0,0,0h155.1c21.4,0,38.8-17.3,38.8-38.8s-17.3-38.8-38.8-38.8h-.3Z"/>
        <path class="st2" d="M388.6,175.9h-1.7c6.9-27.7-7.5-56.3-33.9-67.4s-56.9-1.2-71.9,23.1c-12-7.1-26.8-7.2-38.9-.4s-19.6,19.7-19.6,33.6.2,4.2.6,6.2c-21.2,3.9-35.8,23.3-33.8,44.7s20,37.7,41.6,37.7h2.8c0-.1,0,0,0,0h155.1c21.4,0,38.8-17.3,38.8-38.8s-17.3-38.8-38.8-38.8h-.3Z"/>
        <path class="st6" d="M127.8,219.8h2.3c-9.1-36.7,10-74.5,44.9-89.1,34.9-14.6,75.2-1.7,95.1,30.5,15.8-9.4,35.4-9.6,51.5-.5,16,9.1,25.9,26.1,26,44.5,0,2.8-.3,5.5-.7,8.2,28,5.2,47.4,30.9,44.7,59.1-2.6,28.3-26.5,49.9-55,49.8l-3.7-.2v.2H127.8c-28.3,0-51.3-23-51.3-51.3s23-51.3,51.3-51.3h0Z"/>
        <path class="st0" d="M127.8,219.8h2.3c-9.1-36.7,10-74.5,44.9-89.1,34.9-14.6,75.2-1.7,95.1,30.5,15.8-9.4,35.4-9.6,51.5-.5,16,9.1,25.9,26.1,26,44.5,0,2.8-.3,5.5-.7,8.2,28,5.2,47.4,30.9,44.7,59.1-2.6,28.3-26.5,49.9-55,49.8l-3.7-.2v.2H127.8c-28.3,0-51.3-23-51.3-51.3s23-51.3,51.3-51.3h0Z"/>
      </g>
      <g>
        <path class="st4" d="M177.9,330.1v-45.9c0-5.1-4.1-9.2-9.2-9.2s-9.2,4.1-9.2,9.2v45.9c0,5.1,4.1,9.2,9.2,9.2s9.2-4.1,9.2-9.2Z"/>
        <path class="st5" d="M242.2,390.9v-45.9c0-5.1-4.1-9.2-9.2-9.2s-9.2,4.1-9.2,9.2v45.9c0,5.1,4.1,9.2,9.2,9.2s9.2-4.1,9.2-9.2Z"/>
        <path class="st3" d="M306.4,350.7v-45.9c0-5.1-4.1-9.2-9.2-9.2s-9.2,4.1-9.2,9.2v45.9c0,5.1,4.1,9.2,9.2,9.2s9.2-4.1,9.2-9.2Z"/>
      </g>
    </g>
  </g>
</svg>