<?xml version="1.0" encoding="UTF-8"?>
<svg id="Layer_1" xmlns="http://www.w3.org/2000/svg" version="1.1" xmlns:xlink="http://www.w3.org/1999/xlink" viewBox="0 0 512 512">
  <!-- Generator: Adobe Illustrator 29.4.0, SVG Export Plug-In . SVG Version: 2.1.0 Build 152)  -->
  <defs>
    <style>
      .st0 {
        fill: url(#linear-gradient7);
      }

      .st0, .st1, .st2, .st3, .st4, .st5, .st6, .st7 {
        stroke-miterlimit: 10;
      }

      .st0, .st3, .st5 {
        stroke: #0a5ad4;
      }

      .st1 {
        fill: url(#linear-gradient4);
      }

      .st1, .st4, .st6 {
        stroke: #99c9db;
      }

      .st2 {
        stroke: #d4dce8;
      }

      .st2, .st8, .st7 {
        fill: none;
      }

      .st2, .st7 {
        stroke-width: 4.5px;
      }

      .st9 {
        fill: #fff;
      }

      .st10 {
        opacity: .3;
      }

      .st11 {
        fill: url(#linear-gradient1);
      }

      .st3 {
        fill: url(#linear-gradient6);
      }

      .st4 {
        fill: url(#linear-gradient2);
      }

      .st5 {
        fill: url(#linear-gradient5);
      }

      .st6 {
        fill: url(#linear-gradient3);
      }

      .st7 {
        stroke: #a1a7b0;
      }

      .st12 {
        fill: url(#linear-gradient);
      }

      .st13 {
        clip-path: url(#clippath);
      }
    </style>
    <clipPath id="clippath">
      <rect class="st8" x="72" y="72" width="360" height="360"/>
    </clipPath>
    <linearGradient id="linear-gradient" x1="267.6" y1="1485.3" x2="390.4" y2="1698.1" gradientTransform="translate(49.8 -1058) scale(.8)" gradientUnits="userSpaceOnUse">
      <stop offset="0" stop-color="#dce0e6"/>
      <stop offset=".5" stop-color="#d6dae0"/>
      <stop offset="1" stop-color="#b4becc"/>
    </linearGradient>
    <linearGradient id="linear-gradient1" x1="-142.9" y1="1517.5" x2="19.5" y2="1798.9" gradientTransform="translate(182 -1058) rotate(-180) scale(.8 -.8)" gradientUnits="userSpaceOnUse">
      <stop offset="0" stop-color="#f3f7fe"/>
      <stop offset=".5" stop-color="#f3f7fe"/>
      <stop offset="1" stop-color="#deeafb"/>
    </linearGradient>
    <linearGradient id="linear-gradient2" x1="-8036.3" y1="8559.1" x2="-8010.8" y2="8603.4" gradientTransform="translate(8190.9 -8311)" gradientUnits="userSpaceOnUse">
      <stop offset="0" stop-color="#99c7db"/>
      <stop offset=".5" stop-color="#99c7db"/>
      <stop offset="1" stop-color="#91bdcf"/>
    </linearGradient>
    <linearGradient id="linear-gradient3" x1="-7969.4" y1="8666.3" x2="-7943.9" y2="8710.6" gradientTransform="translate(8190.9 -8311)" gradientUnits="userSpaceOnUse">
      <stop offset="0" stop-color="#99c7db"/>
      <stop offset=".5" stop-color="#99c7db"/>
      <stop offset="1" stop-color="#91bdcf"/>
    </linearGradient>
    <linearGradient id="linear-gradient4" x1="-7902.7" y1="8606.8" x2="-7877.2" y2="8651.1" gradientTransform="translate(8190.9 -8311)" gradientUnits="userSpaceOnUse">
      <stop offset="0" stop-color="#99c7db"/>
      <stop offset=".5" stop-color="#99c7db"/>
      <stop offset="1" stop-color="#91bdcf"/>
    </linearGradient>
    <linearGradient id="linear-gradient5" x1="-7893.6" y1="6129.4" x2="-7882.4" y2="6158.6" gradientTransform="translate(6997.4 -6960.7) rotate(-9)" gradientUnits="userSpaceOnUse">
      <stop offset="0" stop-color="#2f7bed"/>
      <stop offset=".5" stop-color="#2a6ed4"/>
      <stop offset="1" stop-color="#2661bc"/>
    </linearGradient>
    <linearGradient id="linear-gradient6" x1="-7818.4" y1="6080.9" x2="-7807.1" y2="6110.3" gradientTransform="translate(6997.4 -6960.7) rotate(-9)" gradientUnits="userSpaceOnUse">
      <stop offset="0" stop-color="#2f7bed"/>
      <stop offset=".5" stop-color="#2a6ed4"/>
      <stop offset="1" stop-color="#2661bc"/>
    </linearGradient>
    <linearGradient id="linear-gradient7" x1="-7769.2" y1="6197.3" x2="-7757.9" y2="6226.7" gradientTransform="translate(6997.4 -6960.7) rotate(-9)" gradientUnits="userSpaceOnUse">
      <stop offset="0" stop-color="#2f7bed"/>
      <stop offset=".5" stop-color="#2a6ed4"/>
      <stop offset="1" stop-color="#2661bc"/>
    </linearGradient>
  </defs>
  <g class="st10">
    <path class="st9" d="M438.7,208.7c0-13.1-5.1-25.6-14.3-35-6.8-7-15.4-11.8-24.7-13.9.7-12.6-2-25.2-7.9-36.4-7.5-14-19.7-25.2-34.5-31.4-14.9-6.3-31.6-7.2-46.9-2.5-12.9,3.9-24.4,11.6-33.1,22-12.7-4.3-26.5-3.4-38.6,2.7-2.4-1-4.8-1.9-7.2-2.7-20-6.4-41.6-5.5-60.9,2.6-19.4,8.1-35.2,22.9-44.7,41.6-7.4,14.7-10.5,31.2-9,47.5-29.3,5.2-51.7,30.9-51.7,61.6s28,62.5,62.5,62.5h22.2c-.8,2.2-1.3,4.5-1.3,6.9v14.3c0,10.5,8.5,19,19,19s19-8.5,19-19v-14.3c0-2.4-.5-4.8-1.3-6.9h80.6c-.5,3.2,0,6.4,1.7,9.3,0,0,0,.2.1.2,2.5,4.2,7,6.8,11.9,7,2.4.1,4.9-.4,7-1.6.4,7.5,6.6,13.5,14.3,13.5s13.9-6,14.3-13.5h0c2,1,4.2,1.6,6.4,1.6,5.1,0,9.9-2.6,12.5-7.1,1.7-2.9,2.3-6.3,1.8-9.4h.7c34.4,0,62.7-25.8,65.9-59.9.3-3.6.4-7.2.1-10.8,21-6.1,36-25.3,36-48.1v.2Z"/>
    <path class="st9" d="M269.2,369.5c1-3.6.6-7.5-1.2-10.8-1.8-3.4-4.8-5.8-8.5-6.9-3.6-1.1-7.4-.7-10.7,1-.4-7.5-6.7-13.4-14.3-13.4s-13.9,6-14.3,13.5c-6.5-3.4-14.6-1.4-18.7,4.7-.2.3-.4.6-.6,1-1.9,3.3-2.4,7.1-1.4,10.7.9,3.4,3,6.2,5.9,8.2-2.9,1.9-4.9,4.7-5.9,8-1.1,3.7-.6,7.6,1.3,10.9,0,0,0,.1.1.2,2.5,4.2,7,6.8,11.8,7,2.4.1,4.9-.4,7.1-1.6.4,7.5,6.7,13.5,14.3,13.5s13.8-5.9,14.3-13.4h0c2,1,4.2,1.5,6.4,1.6,5.2.1,9.9-2.6,12.5-7.1,3.4-5.7,2.3-13-2.3-17.5-.5-.6-1.1-1.2-1.8-1.7,2.8-1.9,4.9-4.7,5.9-8h0ZM231.9,378.1v-.8l3.8,1.9c-.4.4-1,.7-1.5.7s-.7,0-1.2-.3-.9-.8-1-1.4h-.1ZM232.4,375.9c.4-.6,1.1-.9,1.7-.9s.7,0,1.1.3c.5.3.9.8,1.1,1.4.2.6,0,1.3-.2,1.8l-3.7-2.6h0Z"/>
    <path class="st9" d="M301.1,363.2c-10.5,0-19,8.5-19,19v14.3c0,10.5,8.5,19,19,19s19-8.5,19-19v-14.3c0-10.5-8.5-19-19-19Z"/>
  </g>
  <g class="st13">
    <g>
      <g>
        <path class="st12" d="M388.6,169.9h-1.7c6.9-27.7-7.5-56.3-33.9-67.4s-56.9-1.2-71.9,23.1c-12-7.1-26.8-7.2-38.9-.4-12.1,6.9-19.6,19.7-19.6,33.6s.2,4.2.6,6.2c-21.2,3.9-35.8,23.3-33.8,44.7s20,37.7,41.6,37.7h2.8c0-.1,0,0,0,0h155.1c21.4,0,38.8-17.3,38.8-38.8s-17.3-38.8-38.8-38.8h-.3Z"/>
        <path class="st7" d="M388.6,169.9h-1.7c6.9-27.7-7.5-56.3-33.9-67.4s-56.9-1.2-71.9,23.1c-12-7.1-26.8-7.2-38.9-.4-12.1,6.9-19.6,19.7-19.6,33.6s.2,4.2.6,6.2c-21.2,3.9-35.8,23.3-33.8,44.7s20,37.7,41.6,37.7h2.8c0-.1,0,0,0,0h155.1c21.4,0,38.8-17.3,38.8-38.8s-17.3-38.8-38.8-38.8h-.3Z"/>
        <path class="st11" d="M127.8,213.8h2.3c-9.1-36.7,10-74.5,44.9-89.1s75.2-1.7,95.1,30.5c15.8-9.4,35.4-9.6,51.5-.5s25.9,26.1,26,44.5c0,2.8-.3,5.5-.7,8.2,28,5.2,47.4,30.9,44.7,59.1-2.6,28.3-26.5,49.9-55,49.8l-3.7-.2v.2H127.8c-28.3,0-51.3-23-51.3-51.3s23-51.3,51.3-51.3h0Z"/>
        <path class="st2" d="M127.8,213.8h2.3c-9.1-36.7,10-74.5,44.9-89.1s75.2-1.7,95.1,30.5c15.8-9.4,35.4-9.6,51.5-.5s25.9,26.1,26,44.5c0,2.8-.3,5.5-.7,8.2,28,5.2,47.4,30.9,44.7,59.1-2.6,28.3-26.5,49.9-55,49.8l-3.7-.2v.2H127.8c-28.3,0-51.3-23-51.3-51.3s23-51.3,51.3-51.3h0Z"/>
      </g>
      <g>
        <path class="st4" d="M190.9,277.9c2.3,1.4,3,4.3,1.6,6.5-.9,1.4-2.4,2.4-4.1,2.4s-1.6-.2-2.4-.6l-7.2-3.9c-1.9,1.8-4.2,3.1-6.7,3.8v7.9c0,2.7-2.2,4.9-4.9,4.9s-4.9-2.2-4.9-4.9v-7.9c-1.2-.4-2.4-.8-3.6-1.4s-2.1-1.5-3.1-2.4l-6.9,3.9c-.7.4-1.6.6-2.4.6-1.7,0-3.3-.9-4.2-2.4h0c-1.3-2.3-.5-5.2,1.9-6.5l6.9-3.8c-.6-2.6-.6-5.2,0-7.7l-6.9-3.9h0c-2.3-1.4-3.1-4.2-1.7-6.5,0,0,0-.1.1-.2,1.4-2.2,4.3-2.9,6.6-1.6l6.9,3.9c1.9-1.8,4.3-3.1,6.8-3.8v-7.9c0-2.6,2.1-4.8,4.8-4.8s4.8,2.1,4.8,4.8v7.7c1.2.4,2.4.9,3.6,1.6,1.1.6,2.1,1.5,3.1,2.4l6.9-3.9s.1,0,.2-.1c2.3-1.3,5.2-.4,6.4,1.9h0c1.3,2.3.5,5.2-1.9,6.5l-6.9,3.8c.6,2.6.6,5.2,0,7.7l6.9,3.9h-.1.4ZM173.6,273.7h0c2-3.4.8-7.8-2.6-9.7-1.1-.6-2.3-.9-3.6-.9-2.6,0-5,1.4-6.3,3.6h0c-1.9,3.4-.7,7.8,2.8,9.7,3.4,1.9,7.7.7,9.8-2.6h0Z"/>
        <path class="st6" d="M257.7,385.3c2.2,1.4,2.9,4.3,1.6,6.6-.9,1.5-2.4,2.4-4.2,2.4s-1.6-.2-2.4-.6l-6.9-3.9c-1.9,1.8-4.3,3.1-6.8,3.8v7.7c0,2.6-2.1,4.8-4.8,4.8s-4.8-2.1-4.8-4.8v-7.9c-1.2-.4-2.4-.8-3.6-1.4s-2.2-1.4-3.2-2.4l-6.9,3.9c-.7.4-1.6.6-2.4.6-1.7,0-3.3-.9-4.2-2.4h0c-1.3-2.3-.5-5.2,1.9-6.5l6.9-3.8c-.6-2.6-.6-5.2,0-7.7l-6.9-3.9h0c-2.3-1.4-3.1-4.2-1.7-6.5,0,0,0-.1.1-.2,1.4-2.2,4.3-2.9,6.6-1.6l6.9,3.9c1.9-1.8,4.3-3.1,6.8-3.8v-7.9c0-2.6,2.1-4.8,4.8-4.8s4.8,2.1,4.8,4.8v7.7c1.2.4,2.4.9,3.6,1.6,1.1.6,2.1,1.5,3.1,2.4l6.9-3.9s.1,0,.2-.1c2.3-1.3,5.2-.4,6.4,1.9h0c1.3,2.3.5,5.2-1.9,6.5l-6.9,3.8c.6,2.6.6,5.2,0,7.7l6.9,3.9h0c0,.1,0,0,0,0h0ZM240.4,381h0c2-3.4.8-7.8-2.6-9.7-1.1-.6-2.3-.9-3.6-.9-2.6,0-5,1.4-6.3,3.6h0c-1.9,3.4-.7,7.8,2.8,9.7,3.4,1.9,7.7.7,9.8-2.6h0Z"/>
        <path class="st1" d="M324.4,325.6c2.2,1.4,2.9,4.3,1.6,6.6-.9,1.5-2.4,2.4-4.2,2.4s-1.6-.2-2.4-.6l-6.9-3.9c-1.9,1.8-4.3,3.1-6.8,3.8v7.9c0,2.6-2.1,4.8-4.8,4.8s-4.8-2.1-4.8-4.8v-7.9c-1.2-.4-2.4-.8-3.6-1.4s-2.2-1.4-3.2-2.4l-6.9,3.9c-.7.4-1.6.6-2.4.6-1.7,0-3.3-.9-4.2-2.4h0c-1.3-2.3-.5-5.2,1.9-6.5l6.9-3.8c-.6-2.6-.6-5.2,0-7.7l-6.9-3.9h0c-2.3-1.4-3.1-4.2-1.7-6.5,0,0,0-.1.1-.2,1.4-2.2,4.3-2.9,6.6-1.6l6.9,3.9c1.9-1.8,4.3-3.1,6.8-3.8v-7.9c0-2.6,2.1-4.8,4.8-4.8s4.8,2.1,4.8,4.8v7.7c1.2.4,2.4.9,3.6,1.6,1.1.6,2.1,1.5,3.1,2.4l6.9-3.9s.1,0,.2-.1c2.3-1.3,5.2-.4,6.4,1.9h0c1.3,2.3.5,5.2-1.9,6.5l-6.9,3.8c.6,2.6.6,5.2,0,7.7l6.9,3.9h.1ZM307.2,321.3h0c2-3.4.8-7.8-2.6-9.7-1.1-.6-2.3-.9-3.6-.9-2.6,0-5,1.4-6.3,3.6h0c-1.9,3.4-.7,7.8,2.8,9.7,3.4,1.9,7.7.7,9.8-2.6h0Z"/>
        <path class="st5" d="M177.2,348.8v-14.3c0-5.3-4.3-9.5-9.5-9.5s-9.5,4.3-9.5,9.5v14.3c0,5.3,4.3,9.5,9.5,9.5s9.5-4.3,9.5-9.5Z"/>
        <path class="st3" d="M243.9,289.2v-14.3c0-5.3-4.3-9.5-9.5-9.5s-9.5,4.3-9.5,9.5v14.3c0,5.3,4.3,9.5,9.5,9.5s9.5-4.3,9.5-9.5Z"/>
        <path class="st0" d="M310.7,396.5v-14.3c0-5.3-4.3-9.5-9.5-9.5s-9.5,4.3-9.5,9.5v14.3c0,5.3,4.3,9.5,9.5,9.5s9.5-4.3,9.5-9.5Z"/>
      </g>
    </g>
  </g>
</svg>