<?xml version="1.0" encoding="UTF-8"?>
<svg id="Layer_1" xmlns="http://www.w3.org/2000/svg" version="1.1" xmlns:xlink="http://www.w3.org/1999/xlink" viewBox="0 0 512 512">
  <!-- Generator: Adobe Illustrator 29.4.0, SVG Export Plug-In . SVG Version: 2.1.0 Build 152)  -->
  <defs>
    <style>
      .st0 {
        stroke: #d4dce8;
      }

      .st0, .st1, .st2 {
        fill: none;
      }

      .st0, .st3, .st2 {
        stroke-miterlimit: 10;
      }

      .st0, .st2 {
        stroke-width: 4.5px;
      }

      .st4 {
        fill: url(#linear-gradient1);
      }

      .st3 {
        fill: url(#linear-gradient2);
        stroke: #f6a823;
        stroke-width: 4px;
      }

      .st5 {
        fill: #fff;
        opacity: .3;
      }

      .st2 {
        stroke: #a1a7b0;
      }

      .st6 {
        fill: url(#linear-gradient);
      }

      .st7 {
        clip-path: url(#clippath);
      }
    </style>
    <clipPath id="clippath">
      <rect class="st1" x="72" y="72" width="360" height="360"/>
    </clipPath>
    <linearGradient id="linear-gradient" x1="272.8" y1="-975.1" x2="395.5" y2="-1187.9" gradientTransform="translate(45.6 -663) scale(.8 -.8)" gradientUnits="userSpaceOnUse">
      <stop offset="0" stop-color="#dce0e6"/>
      <stop offset=".5" stop-color="#d6dae0"/>
      <stop offset="1" stop-color="#b4becc"/>
    </linearGradient>
    <linearGradient id="linear-gradient1" x1="-190.2" y1="-1007.3" x2="-27.8" y2="-1288.7" gradientTransform="translate(144.2 -663) rotate(-180) scale(.8)" gradientUnits="userSpaceOnUse">
      <stop offset="0" stop-color="#f3f7fe"/>
      <stop offset=".5" stop-color="#f3f7fe"/>
      <stop offset="1" stop-color="#deeafb"/>
    </linearGradient>
    <linearGradient id="linear-gradient2" x1="-7996.1" y1="-8105.5" x2="-7932.7" y2="-8215.3" gradientTransform="translate(8192.6 -7827) scale(1 -1)" gradientUnits="userSpaceOnUse">
      <stop offset="0" stop-color="#f7b23b"/>
      <stop offset=".5" stop-color="#f7b23b"/>
      <stop offset="1" stop-color="#f59e0b"/>
    </linearGradient>
  </defs>
  <path class="st5" d="M438.8,195.6c0-13.1-5.1-25.6-14.3-35-6.8-7-15.4-11.8-24.7-13.9.7-12.6-2-25.2-7.9-36.4-7.5-14-19.7-25.2-34.5-31.4-14.9-6.3-31.6-7.2-46.9-2.5-12.9,3.9-24.4,11.6-33.1,22-12.7-4.3-26.5-3.4-38.6,2.7-2.4-1-4.8-1.9-7.2-2.7-20-6.4-41.6-5.5-60.9,2.6-19.4,8.1-35.2,22.9-44.7,41.6-7.4,14.7-10.5,31.2-9,47.5-29.3,5.2-51.7,30.9-51.7,61.6s28,62.5,62.5,62.5h63l-15.2,45.5h30l-21.6,107.5,109.2-153h50.8v-.4c31-3.4,55.6-27.8,58.6-59.5.3-3.6.4-7.2.1-10.8,21-6.1,36-25.3,36-48.1v.2Z"/>
  <g class="st7">
    <g>
      <g>
        <path class="st6" d="M388.6,156.8h-1.7c6.9-27.7-7.5-56.3-33.9-67.4s-56.9-1.2-71.9,23.1c-12-7.1-26.8-7.2-38.9-.4-12.1,6.9-19.6,19.7-19.6,33.6s.2,4.2.6,6.2c-21.2,3.9-35.8,23.3-33.8,44.7s20,37.7,41.6,37.7h2.8c0-.1,0,0,0,0h155.1c21.4,0,38.8-17.3,38.8-38.8s-17.3-38.8-38.8-38.8h-.3Z"/>
        <path class="st2" d="M388.6,156.8h-1.7c6.9-27.7-7.5-56.3-33.9-67.4s-56.9-1.2-71.9,23.1c-12-7.1-26.8-7.2-38.9-.4-12.1,6.9-19.6,19.7-19.6,33.6s.2,4.2.6,6.2c-21.2,3.9-35.8,23.3-33.8,44.7s20,37.7,41.6,37.7h2.8c0-.1,0,0,0,0h155.1c21.4,0,38.8-17.3,38.8-38.8s-17.3-38.8-38.8-38.8h-.3Z"/>
        <path class="st4" d="M127.8,200.7h2.3c-9.1-36.7,10-74.5,44.9-89.1s75.2-1.7,95.1,30.5c15.8-9.4,35.4-9.6,51.5-.5s25.9,26.1,26,44.5c0,2.8-.3,5.5-.7,8.2,28,5.2,47.4,30.9,44.7,59.1-2.6,28.3-26.5,49.9-55,49.8l-3.7-.2v.2H127.8c-28.3,0-51.3-23-51.3-51.3s23-51.3,51.3-51.3h0Z"/>
        <path class="st0" d="M127.8,200.7h2.3c-9.1-36.7,10-74.5,44.9-89.1s75.2-1.7,95.1,30.5c15.8-9.4,35.4-9.6,51.5-.5s25.9,26.1,26,44.5c0,2.8-.3,5.5-.7,8.2,28,5.2,47.4,30.9,44.7,59.1-2.6,28.3-26.5,49.9-55,49.8l-3.7-.2v.2H127.8c-28.3,0-51.3-23-51.3-51.3s23-51.3,51.3-51.3h0Z"/>
      </g>
      <path class="st3" d="M261.1,264.5l-28.1,56.2h42.2l-70.3,98.4,14.1-70.3h-28.1l28.1-84.3h42.2-.1Z"/>
    </g>
  </g>
</svg>