<?xml version="1.0" encoding="UTF-8"?>
<svg id="Layer_1" xmlns="http://www.w3.org/2000/svg" version="1.1" xmlns:xlink="http://www.w3.org/1999/xlink" viewBox="0 0 512 512">
  <!-- Generator: Adobe Illustrator 29.4.0, SVG Export Plug-In . SVG Version: 2.1.0 Build 152)  -->
  <defs>
    <style>
      .st0 {
        stroke: #d4dce8;
      }

      .st0, .st1, .st2 {
        fill: none;
      }

      .st0, .st3, .st4, .st2, .st5, .st6 {
        stroke-miterlimit: 10;
      }

      .st0, .st2 {
        stroke-width: 4.5px;
      }

      .st7 {
        fill: #fff;
      }

      .st8 {
        fill: url(#linear-gradient1);
      }

      .st3 {
        fill: url(#linear-gradient4);
      }

      .st3, .st4, .st6 {
        stroke: #0a5ad4;
      }

      .st4 {
        fill: url(#linear-gradient2);
      }

      .st2 {
        stroke: #a1a7b0;
      }

      .st9 {
        fill: url(#linear-gradient);
      }

      .st10 {
        clip-path: url(#clippath);
      }

      .st5 {
        fill: url(#linear-gradient5);
        stroke: #f6a823;
        stroke-width: 4px;
      }

      .st6 {
        fill: url(#linear-gradient3);
      }
    </style>
    <clipPath id="clippath">
      <rect class="st1" x="72" y="72" width="360" height="360"/>
    </clipPath>
    <linearGradient id="linear-gradient" x1="268.3" y1="-840.8" x2="391.1" y2="-1053.6" gradientTransform="translate(49 -557.8) scale(.8 -.8)" gradientUnits="userSpaceOnUse">
      <stop offset="0" stop-color="#dce0e6"/>
      <stop offset=".5" stop-color="#d6dae0"/>
      <stop offset="1" stop-color="#b4becc"/>
    </linearGradient>
    <linearGradient id="linear-gradient1" x1="-151.8" y1="-872.8" x2="10.6" y2="-1154.2" gradientTransform="translate(174.8 -557.8) rotate(-180) scale(.8)" gradientUnits="userSpaceOnUse">
      <stop offset="0" stop-color="#f3f7fe"/>
      <stop offset=".5" stop-color="#f3f7fe"/>
      <stop offset="1" stop-color="#deeafb"/>
    </linearGradient>
    <linearGradient id="linear-gradient2" x1="-7938.8" y1="-5773.3" x2="-7918" y2="-5827.5" gradientTransform="translate(7085 -6676.4) rotate(-9) scale(1 -1)" gradientUnits="userSpaceOnUse">
      <stop offset="0" stop-color="#2f7bed"/>
      <stop offset=".5" stop-color="#2a6ed4"/>
      <stop offset="1" stop-color="#2661bc"/>
    </linearGradient>
    <linearGradient id="linear-gradient3" x1="-7857.2" y1="-5882.9" x2="-7836.3" y2="-5937.2" gradientTransform="translate(7085.1 -6675.3) rotate(-9) scale(1 -1)" xlink:href="#linear-gradient2"/>
    <linearGradient id="linear-gradient4" x1="-7792.7" y1="-5807.8" x2="-7771.9" y2="-5862" gradientTransform="translate(7085.2 -6674.2) rotate(-9) scale(1 -1)" xlink:href="#linear-gradient2"/>
    <linearGradient id="linear-gradient5" x1="-8005.7" y1="-8004.5" x2="-7944.9" y2="-8109.8" gradientTransform="translate(8192.6 -7721) scale(1 -1)" gradientUnits="userSpaceOnUse">
      <stop offset="0" stop-color="#f7b23b"/>
      <stop offset=".5" stop-color="#f7b23b"/>
      <stop offset="1" stop-color="#f59e0b"/>
    </linearGradient>
  </defs>
  <path class="st7" d="M438.8,193.2c0-13.1-5.1-25.6-14.3-35-6.8-7-15.4-11.8-24.7-13.9.7-12.6-2-25.2-7.9-36.4-7.5-14-19.7-25.2-34.5-31.4-14.9-6.3-31.6-7.2-46.9-2.5-12.9,3.9-24.4,11.6-33.1,22-12.7-4.3-26.5-3.4-38.6,2.7-2.4-1-4.8-1.9-7.2-2.7-20-6.4-41.6-5.5-60.9,2.6-19.4,8.1-35.2,22.9-44.7,41.6-7.4,14.7-10.5,31.2-9,47.5-29.3,5.2-51.7,30.9-51.7,61.6s28,62.5,62.5,62.5h15.2v3.8c0,10.3,8.4,18.7,18.7,18.7s18.7-8.4,18.7-18.7v-3.8h2.7l-16.6,49.9h28.7l-21,104.5,66.7-93.4v39.3c0,10.3,8.4,18.7,18.7,18.7s18.7-8.4,18.7-18.7v-45.9c0-10.3-8.4-18.7-18.7-18.7s-.4,0-.6,0l24.9-34.8h-44l.5-1h52.7v17.2c0,10.3,8.4,18.7,18.7,18.7s18.7-8.4,18.7-18.7v-17.2h5.8s.7,0,.7,0c.7,0,1.5,0,2.2,0h5.1v-.4c31-3.4,55.6-27.8,58.6-59.5.3-3.6.4-7.2.1-10.8,21-6.1,36-25.3,36-48.1Z"/>
  <g class="st10">
    <g>
      <path class="st9" d="M388.6,154.4h-1.7c6.9-27.7-7.5-56.3-33.9-67.4-26.4-11.1-56.9-1.2-71.9,23.1-12-7.1-26.8-7.2-38.9-.4-12.1,6.9-19.6,19.7-19.6,33.6s.2,4.2.6,6.2c-21.2,3.9-35.8,23.3-33.8,44.7,2,21.4,20,37.7,41.6,37.7h2.8c0-.1,0,0,0,0h155.1c21.4,0,38.8-17.3,38.8-38.8s-17.3-38.8-38.8-38.8h0Z"/>
      <path class="st2" d="M388.6,154.4h-1.7c6.9-27.7-7.5-56.3-33.9-67.4-26.4-11.1-56.9-1.2-71.9,23.1-12-7.1-26.8-7.2-38.9-.4-12.1,6.9-19.6,19.7-19.6,33.6s.2,4.2.6,6.2c-21.2,3.9-35.8,23.3-33.8,44.7,2,21.4,20,37.7,41.6,37.7h2.8c0-.1,0,0,0,0h155.1c21.4,0,38.8-17.3,38.8-38.8s-17.3-38.8-38.8-38.8h0Z"/>
      <path class="st8" d="M127.8,198.3h2.3c-9.1-36.7,10-74.5,44.9-89.1,34.9-14.6,75.2-1.7,95.1,30.5,15.8-9.4,35.4-9.6,51.5-.5,16,9.1,25.9,26.1,26,44.5,0,2.8-.3,5.5-.7,8.2,28,5.2,47.4,30.9,44.7,59.1-2.6,28.3-26.5,49.9-55,49.8l-3.7-.2v.2H127.8c-28.3,0-51.3-23-51.3-51.3s23-51.3,51.3-51.3h0Z"/>
      <path class="st0" d="M127.8,198.3h2.3c-9.1-36.7,10-74.5,44.9-89.1,34.9-14.6,75.2-1.7,95.1,30.5,15.8-9.4,35.4-9.6,51.5-.5,16,9.1,25.9,26.1,26,44.5,0,2.8-.3,5.5-.7,8.2,28,5.2,47.4,30.9,44.7,59.1-2.6,28.3-26.5,49.9-55,49.8l-3.7-.2v.2H127.8c-28.3,0-51.3-23-51.3-51.3s23-51.3,51.3-51.3h0Z"/>
    </g>
    <g>
      <g>
        <path class="st4" d="M170.8,315.8v-45.9c0-5.1-4.1-9.2-9.2-9.2s-9.2,4.1-9.2,9.2v45.9c0,5.1,4.1,9.2,9.2,9.2s9.2-4.1,9.2-9.2Z"/>
        <path class="st6" d="M268.6,412.4v-45.9c0-5.1-4.1-9.2-9.2-9.2s-9.2,4.1-9.2,9.2v45.9c0,5.1,4.1,9.2,9.2,9.2s9.2-4.1,9.2-9.2Z"/>
        <path class="st3" d="M320.7,329.3v-45.9c0-5.1-4.1-9.2-9.2-9.2s-9.2,4.1-9.2,9.2v45.9c0,5.1,4.1,9.2,9.2,9.2s9.2-4.1,9.2-9.2Z"/>
      </g>
      <path class="st5" d="M248.8,270.1l-26.9,53.9h40.4l-67.4,94.3,13.5-67.4h-26.9l26.9-80.8h40.4-.1Z"/>
    </g>
  </g>
</svg>